<svg id="Layer_1" data-name="Layer 1" xmlns="http://www.w3.org/2000/svg" xmlns:xlink="http://www.w3.org/1999/xlink" width="56" height="56" viewBox="0 0 56 56">
  <defs>
    <clipPath id="clip-path">
      <circle cx="28" cy="28" r="18" style="fill: none"/>
    </clipPath>
  </defs>
  <title>56dp</title>
  <path d="M28,7A21,21,0,1,1,7,28,21,21,0,0,1,28,7m0-3A24,24,0,1,0,52,28,24,24,0,0,0,28,4h0Z" style="fill: #006097"/>
  <g style="clip-path: url(#clip-path)">
    <g>
      <path d="M41.88,40.19l-8.67-3.47V32.38H22.79v4.35l-8.67,3.47a7,7,0,0,0-4.37,6.46v4h36.5v-4A7,7,0,0,0,41.88,40.19Z" style="fill: #98d8f4"/>
      <path d="M28,33.88h0a5.19,5.19,0,0,1-4.73-3L21.52,27a11.71,11.71,0,0,1-1-4.85V19.65A7.53,7.53,0,0,1,28,12.13h0a7.53,7.53,0,0,1,7.53,7.53v2.48a11.71,11.71,0,0,1-1,4.85l-1.75,3.85A5.19,5.19,0,0,1,28,33.88Z" style="fill: #98d8f4"/>
      <path d="M44,40L34,36V31.6l1.75-3.84A14,14,0,0,0,37,22V19a9,9,0,0,0-18,0v3a14,14,0,0,0,1.26,5.79L22,31.6V36L12,40a8,8,0,0,0-5,7.43V52H49V47.42A8,8,0,0,0,44,40ZM22,19a6,6,0,0,1,12,0v3a10.93,10.93,0,0,1-1,4.55l-2.09,4.6a3.21,3.21,0,0,1-5.85,0L23,26.52A10.93,10.93,0,0,1,22,22V19ZM46,49H10V47.42a5,5,0,0,1,3.14-4.64L25,38V35.21A6.18,6.18,0,0,0,28,36h0a6.18,6.18,0,0,0,3-.79V38l11.86,4.74A5,5,0,0,1,46,47.42V49Z" style="fill: #006097"/>
    </g>
  </g>
</svg>
